<?xml version="1.0" encoding="UTF-8" standalone="no"?>
<!DOCTYPE svg PUBLIC "-//W3C//DTD SVG 1.1//EN"
 "http://www.w3.org/Graphics/SVG/1.1/DTD/svg11.dtd">
<!-- Generated by graphviz version 2.43.0 (0)
 -->
<!-- Title: PolymersEcosystem Pages: 1 -->
<svg width="595pt" height="344pt"
 viewBox="0.00 0.00 594.50 343.74" xmlns="http://www.w3.org/2000/svg" xmlns:xlink="http://www.w3.org/1999/xlink">
<g id="graph0" class="graph" transform="scale(1 1) rotate(0) translate(4 339.74)">
<title>PolymersEcosystem</title>
<polygon fill="white" stroke="transparent" points="-4,4 -4,-339.74 590.5,-339.74 590.5,4 -4,4"/>
<!-- IoT -->
<g id="node1" class="node">
<title>IoT</title>
<path fill="#dff6ff" stroke="black" d="M233,-327.87C233,-327.87 12,-327.87 12,-327.87 6,-327.87 0,-321.87 0,-315.87 0,-315.87 0,-301.87 0,-301.87 0,-295.87 6,-289.87 12,-289.87 12,-289.87 233,-289.87 233,-289.87 239,-289.87 245,-295.87 245,-301.87 245,-301.87 245,-315.87 245,-315.87 245,-321.87 239,-327.87 233,-327.87"/>
<text text-anchor="middle" x="122.5" y="-312.67" font-family="Times,serif" font-size="14.00">IoT Devices</text>
<text text-anchor="middle" x="122.5" y="-297.67" font-family="Times,serif" font-size="14.00">(Smart Bins, Sensors, Cameras)</text>
</g>
<!-- Node -->
<g id="node2" class="node">
<title>Node</title>
<path fill="#fff3cd" stroke="black" d="M367,-216C367,-216 168,-216 168,-216 162,-216 156,-210 156,-204 156,-204 156,-190 156,-190 156,-184 162,-178 168,-178 168,-178 367,-178 367,-178 373,-178 379,-184 379,-190 379,-190 379,-204 379,-204 379,-210 373,-216 367,-216"/>
<text text-anchor="middle" x="267.5" y="-200.8" font-family="Times,serif" font-size="14.00">Polymers Node</text>
<text text-anchor="middle" x="267.5" y="-185.8" font-family="Times,serif" font-size="14.00">(Validator &amp; Reward Engine)</text>
</g>
<!-- IoT&#45;&gt;Node -->
<g id="edge1" class="edge">
<title>IoT&#45;&gt;Node</title>
<path fill="none" stroke="black" d="M146.44,-289.73C170.69,-271.36 208.33,-242.83 235.21,-222.47"/>
<polygon fill="black" stroke="black" points="237.66,-225 243.52,-216.17 233.44,-219.42 237.66,-225"/>
<text text-anchor="middle" x="261" y="-245.3" font-family="Times,serif" font-size="14.00">Scan Events</text>
</g>
<!-- Solana -->
<g id="node3" class="node">
<title>Solana</title>
<path fill="#cce5ff" stroke="black" d="M215.5,-127C215.5,-127 63.5,-127 63.5,-127 57.5,-127 51.5,-121 51.5,-115 51.5,-115 51.5,-101 51.5,-101 51.5,-95 57.5,-89 63.5,-89 63.5,-89 215.5,-89 215.5,-89 221.5,-89 227.5,-95 227.5,-101 227.5,-101 227.5,-115 227.5,-115 227.5,-121 221.5,-127 215.5,-127"/>
<text text-anchor="middle" x="139.5" y="-111.8" font-family="Times,serif" font-size="14.00">Solana Programs</text>
<text text-anchor="middle" x="139.5" y="-96.8" font-family="Times,serif" font-size="14.00">NFTs, Tokens, Staking</text>
</g>
<!-- Node&#45;&gt;Solana -->
<g id="edge2" class="edge">
<title>Node&#45;&gt;Solana</title>
<path fill="none" stroke="black" d="M186.62,-177.98C176.69,-173.31 167.31,-167.42 159.5,-160 152.96,-153.79 148.52,-145.18 145.52,-136.79"/>
<polygon fill="black" stroke="black" points="148.87,-135.78 142.62,-127.22 142.17,-137.81 148.87,-135.78"/>
<text text-anchor="middle" x="210" y="-148.8" font-family="Times,serif" font-size="14.00">NFTs / Tokens</text>
</g>
<!-- SUI -->
<g id="node4" class="node">
<title>SUI</title>
<path fill="#cce5ff" stroke="black" d="M399,-127C399,-127 258,-127 258,-127 252,-127 246,-121 246,-115 246,-115 246,-101 246,-101 246,-95 252,-89 258,-89 258,-89 399,-89 399,-89 405,-89 411,-95 411,-101 411,-101 411,-115 411,-115 411,-121 405,-127 399,-127"/>
<text text-anchor="middle" x="328.5" y="-111.8" font-family="Times,serif" font-size="14.00">SUI Programs</text>
<text text-anchor="middle" x="328.5" y="-96.8" font-family="Times,serif" font-size="14.00">NFTs, ESG, Rewards</text>
</g>
<!-- Node&#45;&gt;SUI -->
<g id="edge3" class="edge">
<title>Node&#45;&gt;SUI</title>
<path fill="none" stroke="black" d="M263.74,-177.86C262.57,-167.56 262.82,-154.81 268.5,-145 270.96,-140.76 274.13,-136.95 277.74,-133.56"/>
<polygon fill="black" stroke="black" points="280.08,-136.17 285.65,-127.16 275.67,-130.73 280.08,-136.17"/>
<text text-anchor="middle" x="351" y="-148.8" font-family="Times,serif" font-size="14.00">Rewards / ESG Credits</text>
</g>
<!-- Dash -->
<g id="node6" class="node">
<title>Dash</title>
<path fill="#f5c6cb" stroke="black" d="M402.5,-38C402.5,-38 254.5,-38 254.5,-38 248.5,-38 242.5,-32 242.5,-26 242.5,-26 242.5,-12 242.5,-12 242.5,-6 248.5,0 254.5,0 254.5,0 402.5,0 402.5,0 408.5,0 414.5,-6 414.5,-12 414.5,-12 414.5,-26 414.5,-26 414.5,-32 408.5,-38 402.5,-38"/>
<text text-anchor="middle" x="328.5" y="-22.8" font-family="Times,serif" font-size="14.00">Frontend Dashboards</text>
<text text-anchor="middle" x="328.5" y="-7.8" font-family="Times,serif" font-size="14.00">&amp; Analytics</text>
</g>
<!-- Node&#45;&gt;Dash -->
<g id="edge5" class="edge">
<title>Node&#45;&gt;Dash</title>
<path fill="none" stroke="black" d="M379.36,-182.52C404.19,-177.17 425.54,-169.87 433.5,-160 462.51,-124.02 460.37,-93.61 433.5,-56 430.21,-51.39 426.29,-47.37 421.93,-43.86"/>
<polygon fill="black" stroke="black" points="423.86,-40.93 413.66,-38.07 419.84,-46.67 423.86,-40.93"/>
<text text-anchor="middle" x="520" y="-104.3" font-family="Times,serif" font-size="14.00">WebSocket + APIs</text>
</g>
<!-- Solana&#45;&gt;Dash -->
<g id="edge6" class="edge">
<title>Solana&#45;&gt;Dash</title>
<path fill="none" stroke="black" d="M165.57,-88.89C181.51,-78.35 202.6,-65.35 222.5,-56 233.74,-50.72 245.98,-45.83 258.01,-41.47"/>
<polygon fill="black" stroke="black" points="259.33,-44.71 267.6,-38.08 257,-38.11 259.33,-44.71"/>
<text text-anchor="middle" x="273.5" y="-59.8" font-family="Times,serif" font-size="14.00">On&#45;chain Data</text>
</g>
<!-- SUI&#45;&gt;Dash -->
<g id="edge7" class="edge">
<title>SUI&#45;&gt;Dash</title>
<path fill="none" stroke="black" d="M328.5,-88.97C328.5,-77.19 328.5,-61.56 328.5,-48.16"/>
<polygon fill="black" stroke="black" points="332,-48 328.5,-38 325,-48 332,-48"/>
<text text-anchor="middle" x="379.5" y="-59.8" font-family="Times,serif" font-size="14.00">On&#45;chain Data</text>
</g>
<!-- DAO -->
<g id="node5" class="node">
<title>DAO</title>
<ellipse fill="#e2e3e5" stroke="black" cx="412.5" cy="-308.87" rx="149.81" ry="26.74"/>
<text text-anchor="middle" x="412.5" y="-312.67" font-family="Times,serif" font-size="14.00">Polymers DAO</text>
<text text-anchor="middle" x="412.5" y="-297.67" font-family="Times,serif" font-size="14.00">Governance &amp; Bonus Rules</text>
</g>
<!-- DAO&#45;&gt;Node -->
<g id="edge4" class="edge">
<title>DAO&#45;&gt;Node</title>
<path fill="none" stroke="black" d="M379.23,-282.66C355.3,-264.53 323.2,-240.21 299.55,-222.29"/>
<polygon fill="black" stroke="black" points="301.65,-219.49 291.57,-216.24 297.42,-225.06 301.65,-219.49"/>
<text text-anchor="middle" x="411" y="-252.8" font-family="Times,serif" font-size="14.00">Reward Policies</text>
<text text-anchor="middle" x="411" y="-237.8" font-family="Times,serif" font-size="14.00">&amp; Staking Rules</text>
</g>
</g>
</svg>
